<svg width="200" height="200" viewBox="0 0 200 200" fill="none" xmlns="http://www.w3.org/2000/svg">
<circle cx="99.5369" cy="99.5369" r="99.5369" fill="white"/>
<path d="M118.533 26.3458C118.144 26.248 117.812 26.0638 117.539 25.7933C117.266 25.5196 117.073 25.1978 116.961 24.8279C116.852 24.4588 116.847 24.0797 116.945 23.6908C117.043 23.2987 117.227 22.9673 117.497 22.6968C117.771 22.4239 118.092 22.233 118.461 22.1242C118.831 22.0122 119.211 22.0051 119.6 22.1029C119.992 22.2016 120.323 22.3873 120.592 22.6602C120.866 22.9307 121.057 23.2505 121.166 23.6196C121.279 23.9863 121.286 24.3658 121.188 24.7579C121.09 25.1468 120.904 25.4778 120.63 25.7507C120.36 26.0244 120.04 26.2173 119.67 26.3293C119.304 26.4389 118.925 26.4444 118.533 26.3458Z" fill="black"/>
<path d="M139.82 25.9513L135.003 34.9216L133.917 34.3383L138.734 25.368L139.82 25.9513Z" fill="black"/>
<path d="M151.811 33.7899L145.928 42.1003L144.954 41.4109L145.045 31.6803L144.964 31.6229L140.345 38.1478L139.338 37.4354L145.221 29.1251L146.195 29.8145L146.109 39.5728L146.191 39.6302L150.821 33.0891L151.811 33.7899Z" fill="black"/>
<path d="M159.47 40.7225L152.611 48.2469L151.729 47.4431L153.014 37.7974L152.941 37.7304L147.555 43.6382L146.644 42.8076L153.503 35.2832L154.385 36.087L153.101 45.7608L153.175 45.8278L158.574 39.9052L159.47 40.7225Z" fill="black"/>
<path d="M162.69 52.2485C161.874 52.9472 161.043 53.4037 160.197 53.6181C159.351 53.8326 158.547 53.8211 157.784 53.5836C157.022 53.3462 156.359 52.8977 155.794 52.2383C155.229 51.5788 154.888 50.8544 154.77 50.0649C154.652 49.2754 154.764 48.479 155.106 47.6756C155.447 46.8722 156.026 46.1211 156.842 45.4225C157.657 44.7238 158.488 44.2672 159.334 44.0528C160.181 43.8384 160.985 43.8499 161.747 44.0873C162.509 44.3248 163.172 44.7732 163.737 45.4327C164.302 46.0921 164.644 46.8166 164.761 47.6061C164.879 48.3955 164.767 49.192 164.426 49.9954C164.084 50.7988 163.505 51.5498 162.69 52.2485ZM161.913 51.3424C162.583 50.7688 163.052 50.1727 163.321 49.554C163.592 48.9379 163.682 48.3385 163.593 47.7557C163.507 47.1755 163.263 46.6513 162.862 46.1831C162.46 45.7149 161.979 45.3922 161.417 45.2148C160.856 45.04 160.25 45.0379 159.598 45.2085C158.947 45.3816 158.287 45.755 157.618 46.3286C156.948 46.9022 156.478 47.497 156.207 48.1132C155.939 48.7318 155.848 49.3312 155.935 49.9115C156.024 50.4942 156.269 51.0197 156.67 51.4879C157.071 51.956 157.551 52.2775 158.111 52.4523C158.674 52.6297 159.28 52.6318 159.93 52.4587C160.583 52.2881 161.244 51.916 161.913 51.3424Z" fill="black"/>
<path d="M167.95 51.089L162.475 58.3431L162.541 58.4426L171.355 56.228L172.069 57.3055L161.517 59.8131L160.814 58.7521L167.236 50.0115L167.95 51.089Z" fill="black"/>
<path d="M164.247 64.4122L163.671 63.2551L174.451 62.0633L175.019 63.2026L167.571 71.0877L166.995 69.9306L173.311 63.3866L173.275 63.3154L164.247 64.4122ZM168.02 63.0666L170.342 67.7306L169.363 68.2181L167.041 63.5541L168.02 63.0666Z" fill="black"/>
<path d="M176.43 69.0817L177.462 68.7182L180 75.9205L178.968 76.284L177.904 73.2643L169.333 76.2847L168.923 75.1219L177.494 72.1014L176.43 69.0817Z" fill="black"/>
<path d="M181.449 82.2579L171.503 84.4361L171.239 83.2317L181.185 81.0535L181.449 82.2579Z" fill="black"/>
<path d="M178.276 97.4484C177.207 97.5475 176.265 97.4401 175.45 97.1261C174.636 96.8122 173.986 96.3381 173.501 95.704C173.016 95.0699 172.734 94.3205 172.654 93.4559C172.574 92.5912 172.714 91.8027 173.074 91.0903C173.434 90.3779 173.985 89.7925 174.728 89.3342C175.472 88.8759 176.378 88.5972 177.447 88.4982C178.516 88.3991 179.458 88.5065 180.273 88.8205C181.088 89.1344 181.737 89.6085 182.222 90.2426C182.707 90.8767 182.989 91.6261 183.069 92.4907C183.15 93.3554 183.01 94.1439 182.65 94.8563C182.29 95.5687 181.738 96.1541 180.995 96.6124C180.252 97.0707 179.346 97.3494 178.276 97.4484ZM178.166 96.2604C179.044 96.179 179.771 95.9635 180.348 95.6138C180.925 95.2674 181.346 94.8307 181.61 94.3036C181.874 93.7798 181.978 93.211 181.921 92.5972C181.864 91.9833 181.657 91.4416 181.301 90.972C180.945 90.5057 180.451 90.1537 179.82 89.9159C179.189 89.6815 178.435 89.6049 177.557 89.6862C176.679 89.7676 175.952 89.9815 175.375 90.3278C174.798 90.6775 174.377 91.1143 174.113 91.6381C173.849 92.1651 173.745 92.7356 173.802 93.3495C173.859 93.9633 174.066 94.5034 174.422 94.9697C174.778 95.4393 175.272 95.7913 175.903 96.0257C176.534 96.2635 177.288 96.3417 178.166 96.2604Z" fill="black"/>
<path d="M183.016 106.79L172.839 106.477L172.876 105.284L181.038 99.9848L181.041 99.8854L173.05 99.6392L173.088 98.4069L183.265 98.7204L183.228 99.9131L175.046 105.232L175.043 105.331L183.054 105.578L183.016 106.79Z" fill="black"/>
<path d="M170.868 117.189L171.222 115.945L179.992 122.328L179.644 123.552L168.827 124.361L169.181 123.118L178.258 122.537L178.279 122.461L170.868 117.189ZM174.563 118.736L173.137 123.747L172.085 123.448L173.511 118.437L174.563 118.736Z" fill="black"/>
<path d="M176.726 128.848L177.733 129.274L174.757 136.306L173.749 135.88L174.997 132.932L166.628 129.389L167.109 128.254L175.478 131.796L176.726 128.848Z" fill="black"/>
<path d="M165.774 150.505L157.649 144.369L158.392 143.385L166.517 149.521L165.774 150.505Z" fill="black"/>
<path d="M160.85 154.774L161.635 155.535L156.319 161.017L155.534 160.256L157.763 157.957L151.238 151.631L152.097 150.746L158.621 157.072L160.85 154.774Z" fill="black"/>
<path d="M147.891 164.609C148.253 164.964 148.687 165.117 149.192 165.068C149.697 165.019 150.19 164.801 150.67 164.415C151.021 164.132 151.283 163.828 151.455 163.502C151.624 163.179 151.702 162.859 151.69 162.541C151.674 162.226 151.565 161.942 151.361 161.689C151.191 161.477 150.994 161.336 150.771 161.264C150.547 161.198 150.314 161.178 150.073 161.207C149.834 161.237 149.601 161.291 149.373 161.368C149.148 161.447 148.946 161.527 148.768 161.606L147.787 162.038C147.537 162.15 147.247 162.26 146.917 162.368C146.585 162.478 146.236 162.544 145.87 162.566C145.504 162.592 145.142 162.539 144.784 162.406C144.426 162.273 144.098 162.02 143.799 161.648C143.454 161.22 143.254 160.742 143.2 160.215C143.144 159.691 143.248 159.154 143.513 158.605C143.775 158.058 144.21 157.539 144.82 157.049C145.388 156.592 145.953 156.288 146.517 156.136C147.077 155.987 147.608 155.981 148.11 156.118C148.609 156.257 149.048 156.531 149.428 156.94L148.437 157.737C148.17 157.459 147.87 157.292 147.536 157.237C147.202 157.187 146.861 157.223 146.513 157.345C146.165 157.473 145.833 157.663 145.518 157.917C145.151 158.212 144.87 158.536 144.673 158.89C144.479 159.246 144.383 159.6 144.385 159.951C144.389 160.305 144.508 160.627 144.741 160.916C144.953 161.179 145.199 161.334 145.479 161.381C145.759 161.428 146.061 161.406 146.384 161.316C146.707 161.226 147.039 161.108 147.381 160.961L148.581 160.455C149.344 160.134 150.039 159.994 150.667 160.033C151.294 160.073 151.823 160.36 152.253 160.894C152.611 161.338 152.802 161.822 152.828 162.346C152.853 162.875 152.736 163.395 152.475 163.906C152.214 164.423 151.831 164.884 151.325 165.292C150.814 165.703 150.285 165.977 149.74 166.114C149.197 166.253 148.683 166.259 148.197 166.131C147.708 166.005 147.296 165.747 146.961 165.357L147.891 164.609Z" fill="black"/>
<path d="M128.592 174.637L129.712 174.122C129.926 174.413 130.173 174.643 130.45 174.811C130.725 174.98 131.018 175.093 131.329 175.151C131.639 175.213 131.954 175.221 132.276 175.175C132.598 175.129 132.912 175.035 133.219 174.894C133.78 174.636 134.222 174.261 134.546 173.769C134.868 173.278 135.036 172.696 135.05 172.021C135.062 171.348 134.883 170.611 134.515 169.811C134.146 169.01 133.703 168.395 133.184 167.966C132.663 167.538 132.111 167.286 131.529 167.211C130.944 167.137 130.372 167.229 129.812 167.487C129.505 167.628 129.229 167.806 128.985 168.02C128.74 168.235 128.54 168.478 128.385 168.751C128.227 169.027 128.124 169.325 128.073 169.644C128.021 169.967 128.036 170.303 128.116 170.653L126.996 171.168C126.863 170.657 126.822 170.163 126.873 169.687C126.924 169.211 127.055 168.766 127.265 168.352C127.478 167.94 127.759 167.572 128.109 167.247C128.456 166.923 128.863 166.654 129.33 166.439C130.118 166.076 130.909 165.946 131.7 166.049C132.492 166.152 133.227 166.477 133.906 167.026C134.586 167.574 135.15 168.336 135.599 169.312C136.047 170.287 136.259 171.212 136.234 172.084C136.208 172.957 135.977 173.727 135.54 174.395C135.103 175.063 134.49 175.579 133.702 175.942C133.235 176.156 132.766 176.29 132.294 176.343C131.819 176.397 131.356 176.37 130.904 176.26C130.454 176.154 130.031 175.965 129.636 175.694C129.243 175.426 128.895 175.074 128.592 174.637Z" fill="black"/>
<path d="M118.161 175.95C117.835 174.926 117.739 173.983 117.871 173.12C118.003 172.257 118.328 171.521 118.843 170.912C119.359 170.303 120.031 169.867 120.858 169.603C121.686 169.34 122.486 169.308 123.259 169.507C124.032 169.707 124.721 170.12 125.328 170.748C125.935 171.376 126.401 172.202 126.726 173.225C127.052 174.248 127.149 175.191 127.016 176.054C126.884 176.917 126.56 177.653 126.044 178.263C125.528 178.872 124.857 179.308 124.029 179.571C123.202 179.835 122.401 179.867 121.628 179.667C120.856 179.468 120.166 179.054 119.559 178.427C118.952 177.799 118.486 176.973 118.161 175.95ZM119.298 175.588C119.565 176.428 119.931 177.093 120.396 177.581C120.858 178.071 121.375 178.388 121.946 178.533C122.514 178.679 123.092 178.659 123.679 178.472C124.267 178.285 124.752 177.968 125.134 177.519C125.514 177.071 125.752 176.514 125.849 175.846C125.943 175.18 125.857 174.427 125.589 173.587C125.322 172.746 124.958 172.082 124.496 171.592C124.031 171.103 123.514 170.786 122.946 170.64C122.375 170.495 121.795 170.516 121.208 170.703C120.62 170.889 120.137 171.207 119.758 171.654C119.375 172.103 119.137 172.66 119.043 173.327C118.946 173.994 119.031 174.748 119.298 175.588Z" fill="black"/>
<path d="M115.321 171.235L117.192 181.244L113.81 181.876C113.028 182.022 112.361 182.008 111.81 181.835C111.259 181.665 110.819 181.371 110.492 180.953C110.164 180.536 109.945 180.032 109.835 179.443C109.725 178.853 109.748 178.307 109.903 177.806C110.059 177.305 110.362 176.878 110.812 176.524C111.262 176.173 111.875 175.925 112.65 175.78L115.387 175.269L115.592 176.364L112.894 176.868C112.36 176.968 111.944 177.126 111.648 177.344C111.348 177.562 111.152 177.828 111.059 178.142C110.963 178.46 110.953 178.819 111.028 179.22C111.102 179.62 111.243 179.957 111.449 180.228C111.655 180.5 111.937 180.687 112.297 180.788C112.657 180.893 113.107 180.894 113.648 180.793L115.779 180.395L114.109 171.462L115.321 171.235ZM111.45 176.612L108.147 172.576L109.554 172.313L112.819 176.356L111.45 176.612Z" fill="black"/>
<path d="M106.366 172.642L106.993 182.804L100.86 183.182L100.792 182.091L105.695 181.788L105.483 178.355L100.898 178.637L100.831 177.546L105.416 177.263L105.203 173.809L100.221 174.116L100.154 173.025L106.366 172.642Z" fill="black"/>
<path d="M84.8806 173.383C85.2748 173.457 85.6168 173.62 85.9067 173.873C86.196 174.13 86.4079 174.439 86.5424 174.802C86.6738 175.163 86.7026 175.541 86.6289 175.935C86.5546 176.333 86.3912 176.675 86.1387 176.962C85.8823 177.251 85.5732 177.461 85.2115 177.592C84.8492 177.727 84.4709 177.757 84.0767 177.684C83.6792 177.609 83.3375 177.444 83.0515 177.189C82.7616 176.936 82.551 176.628 82.4197 176.266C82.2845 175.907 82.2541 175.529 82.3284 175.132C82.4021 174.737 82.5671 174.396 82.8235 174.106C83.0766 173.817 83.3843 173.604 83.7467 173.47C84.1051 173.338 84.4831 173.309 84.8806 173.383Z" fill="black"/>
<path d="M63.6576 175.088L67.9132 165.838L69.0333 166.353L64.7777 175.603L63.6576 175.088Z" fill="black"/>
<path d="M51.207 168.002L56.567 159.345L57.5815 159.973L58.0903 169.691L58.1748 169.743L62.3833 162.946L63.4316 163.596L58.0715 172.252L57.0571 171.624L56.5418 161.879L56.4573 161.827L52.2384 168.641L51.207 168.002Z" fill="black"/>
<path d="M43.1355 161.554L49.5187 153.622L50.4483 154.37L49.7591 164.076L49.8365 164.139L54.8484 157.911L55.8089 158.683L49.4257 166.616L48.4961 165.868L49.1824 156.133L49.1049 156.071L44.0806 162.315L43.1355 161.554Z" fill="black"/>
<path d="M39.2126 150.248C39.9835 149.5 40.7847 148.994 41.6162 148.728C42.4477 148.461 43.2511 148.423 44.0263 148.613C44.8016 148.804 45.4915 149.21 46.096 149.834C46.7005 150.457 47.0858 151.159 47.2519 151.94C47.418 152.721 47.3553 153.522 47.0637 154.345C46.7721 155.168 46.2408 155.954 45.4699 156.701C44.6989 157.449 43.8977 157.955 43.0662 158.222C42.2347 158.488 41.4313 158.526 40.6561 158.336C39.8808 158.146 39.191 157.739 38.5865 157.115C37.9819 156.492 37.5966 155.79 37.4305 155.009C37.2644 154.228 37.3272 153.427 37.6188 152.604C37.9104 151.781 38.4416 150.996 39.2126 150.248ZM40.0432 151.105C39.4103 151.718 38.9787 152.342 38.7486 152.976C38.5162 153.608 38.4624 154.212 38.5871 154.788C38.7096 155.362 38.9853 155.87 39.4145 156.312C39.8436 156.755 40.3443 157.048 40.9163 157.19C41.4861 157.33 42.0913 157.295 42.7321 157.084C43.3706 156.872 44.0063 156.458 44.6392 155.844C45.2722 155.231 45.7048 154.608 45.9372 153.976C46.1673 153.342 46.2212 152.739 46.0987 152.165C45.974 151.589 45.6971 151.079 45.2679 150.637C44.8388 150.194 44.3393 149.903 43.7696 149.763C43.1975 149.62 42.5922 149.656 41.9538 149.868C41.313 150.079 40.6761 150.491 40.0432 151.105Z" fill="black"/>
<path d="M34.0336 151.729L39.0518 144.152L38.9799 144.057L30.3185 146.81L29.5395 145.778L39.9178 142.626L40.6848 143.641L34.8125 152.761L34.0336 151.729Z" fill="black"/>
<path d="M36.9097 138.203L37.556 139.323L26.8689 141.176L26.2326 140.074L33.181 131.745L33.8273 132.865L27.9258 139.785L27.9656 139.854L36.9097 138.203ZM33.2266 139.779L30.6215 135.267L31.5687 134.72L34.1738 139.232L33.2266 139.779Z" fill="black"/>
<path d="M24.4618 134.293L23.4545 134.719L20.478 127.687L21.4852 127.26L22.7332 130.209L31.1025 126.666L31.583 127.802L23.2138 131.344L24.4618 134.293Z" fill="black"/>
<path d="M18.6415 121.45L28.4346 118.664L28.772 119.85L18.9789 122.636L18.6415 121.45Z" fill="black"/>
<path d="M20.8729 106.094C21.9341 105.929 22.8809 105.978 23.7133 106.241C24.5457 106.505 25.2234 106.938 25.7463 107.541C26.2693 108.144 26.5973 108.874 26.7305 109.733C26.8637 110.591 26.7726 111.386 26.4571 112.12C26.1416 112.853 25.6271 113.471 24.9136 113.974C24.2002 114.477 23.3129 114.811 22.2517 114.976C21.1905 115.141 20.2438 115.091 19.4113 114.828C18.5789 114.565 17.9012 114.132 17.3783 113.529C16.8554 112.926 16.5273 112.195 16.3941 111.337C16.2609 110.479 16.3521 109.683 16.6676 108.95C16.9831 108.217 17.4976 107.599 18.211 107.096C18.9245 106.592 19.8118 106.258 20.8729 106.094ZM21.056 107.273C20.1848 107.408 19.4721 107.668 18.918 108.052C18.3634 108.434 17.9705 108.895 17.7394 109.438C17.5078 109.977 17.4393 110.551 17.5339 111.16C17.6284 111.769 17.868 112.297 18.2527 112.744C18.6368 113.188 19.1511 113.508 19.7957 113.707C20.4398 113.902 21.1975 113.932 22.0687 113.797C22.9399 113.662 23.6528 113.403 24.2074 113.022C24.7615 112.638 25.1544 112.176 25.386 111.637C25.6171 111.094 25.6853 110.519 25.5908 109.909C25.4962 109.3 25.2569 108.774 24.8727 108.33C24.4881 107.884 23.9737 107.563 23.3296 107.368C22.685 107.169 21.9271 107.137 21.056 107.273Z" fill="black"/>
<path d="M15.5667 97.0609L25.7437 96.7473L25.7804 97.94L17.9607 103.732L17.9638 103.831L25.9543 103.585L25.9923 104.817L15.8153 105.131L15.7786 103.938L23.6175 98.126L23.6144 98.0266L15.604 98.2734L15.5667 97.0609Z" fill="black"/>
<path d="M27.0519 85.9348L26.7753 87.1975L17.6291 81.3672L17.9013 80.1239L28.6472 78.6501L28.3707 79.9128L19.3472 81.0513L19.3302 81.129L27.0519 85.9348ZM23.2688 84.6177L24.3834 79.5281L25.4518 79.7621L24.3372 84.8517L23.2688 84.6177Z" fill="black"/>
<path d="M20.4875 74.6582L19.4559 74.2946L21.9939 67.0924L23.0255 67.4559L21.9614 70.4756L30.5328 73.4961L30.123 74.6589L21.5516 71.6385L20.4875 74.6582Z" fill="black"/>
<path d="M30.0854 52.3678L38.573 57.9919L37.892 59.0197L29.4044 53.3956L30.0854 52.3678Z" fill="black"/>
<path d="M34.7374 47.8043L33.9068 47.0926L38.8752 41.2936L39.7058 42.0052L37.6227 44.4366L44.5242 50.3494L43.722 51.2857L36.8205 45.3729L34.7374 47.8043Z" fill="black"/>
<path d="M47.0661 37.1898C46.6827 36.8577 46.2404 36.7317 45.7393 36.8117C45.2382 36.8918 44.7599 37.1395 44.3043 37.5548C43.9712 37.8585 43.7288 38.1781 43.5772 38.5136C43.4281 38.8469 43.3697 39.1715 43.402 39.4874C43.4368 39.801 43.5636 40.0778 43.7824 40.3179C43.9655 40.5187 44.1707 40.6479 44.3979 40.7053C44.6254 40.758 44.8586 40.763 45.0976 40.72C45.3343 40.6747 45.5638 40.6067 45.7862 40.5161C46.0064 40.423 46.203 40.3312 46.3761 40.2407L47.3279 39.7498C47.5707 39.6226 47.8535 39.4949 48.1761 39.3667C48.5012 39.2363 48.8454 39.149 49.2088 39.1048C49.5723 39.0559 49.9369 39.0868 50.3025 39.1976C50.6681 39.3083 51.0116 39.54 51.3331 39.8927C51.7038 40.2993 51.9322 40.7639 52.0183 41.2863C52.1069 41.8066 52.036 42.3488 51.8059 42.913C51.5781 43.4749 51.1752 44.0193 50.5972 44.5463C50.0583 45.0375 49.5124 45.3759 48.9595 45.5615C48.4091 45.7449 47.8794 45.7837 47.3705 45.6781C46.864 45.5702 46.4085 45.3239 46.004 44.9392L46.9446 44.0818C47.2281 44.3436 47.538 44.4917 47.8742 44.526C48.2107 44.5556 48.5488 44.4985 48.8886 44.3547C49.2287 44.2062 49.5481 43.9957 49.8469 43.7233C50.1947 43.4062 50.4557 43.0652 50.6297 42.7002C50.8016 42.3328 50.8756 41.9737 50.852 41.6231C50.8261 41.2699 50.6881 40.9562 50.438 40.6819C50.2102 40.4321 49.9551 40.2924 49.6726 40.2629C49.39 40.2334 49.0902 40.2735 48.7731 40.3832C48.456 40.4929 48.1317 40.6316 47.8002 40.7992L46.6332 41.3787C45.8913 41.7456 45.2059 41.9286 44.5772 41.9277C43.9485 41.9268 43.403 41.6728 42.9408 41.1658C42.5568 40.7445 42.3357 40.2733 42.2777 39.7521C42.2199 39.2262 42.3052 38.7 42.5337 38.1733C42.7624 37.6419 43.1168 37.1574 43.5968 36.7197C44.0818 36.2776 44.5922 35.9716 45.1279 35.8016C45.6614 35.6292 46.1746 35.5919 46.6674 35.6898C47.1627 35.7854 47.5896 36.0175 47.9479 36.386L47.0661 37.1898Z" fill="black"/>
<path d="M65.7114 25.9928L64.6252 26.5761C64.3932 26.2981 64.1333 26.084 63.8457 25.9337C63.561 25.7819 63.2617 25.6868 62.9477 25.6485C62.635 25.6057 62.3195 25.6172 62.0011 25.6828C61.6828 25.7484 61.3746 25.8612 61.0768 26.0211C60.5337 26.3128 60.1153 26.7142 59.8218 27.2255C59.5312 27.7352 59.3994 28.327 59.4265 29.0009C59.4565 29.6733 59.68 30.3978 60.0971 31.1745C60.5142 31.9512 60.9947 32.5378 61.5386 32.9342C62.0854 33.329 62.6516 33.546 63.237 33.5853C63.8253 33.623 64.391 33.496 64.9341 33.2044C65.232 33.0445 65.4962 32.8499 65.7267 32.6208C65.9573 32.3916 66.1419 32.1364 66.2805 31.855C66.4205 31.5692 66.5058 31.2657 66.5365 30.9445C66.5685 30.6188 66.5335 30.284 66.4315 29.9399L67.5178 29.3566C67.6822 29.859 67.7536 30.3492 67.7319 30.8273C67.7103 31.3054 67.6071 31.7578 67.4223 32.1843C67.2359 32.6079 66.978 32.9928 66.6485 33.339C66.322 33.6837 65.9324 33.9775 65.4798 34.2206C64.7147 34.6314 63.934 34.8099 63.1376 34.756C62.3412 34.7021 61.5872 34.4223 60.8755 33.9166C60.1638 33.411 59.5539 32.6851 59.0459 31.739C58.5379 30.7929 58.2696 29.8836 58.2412 29.011C58.2128 28.1384 58.3961 27.3553 58.7911 26.6617C59.1861 25.968 59.7661 25.4158 60.5311 25.005C60.9837 24.7619 61.4439 24.5995 61.9116 24.5176C62.3822 24.4342 62.8463 24.4333 63.3039 24.5149C63.7599 24.5935 64.1932 24.7558 64.6037 25.0019C65.0127 25.245 65.3819 25.5753 65.7114 25.9928Z" fill="black"/>
<path d="M76.0419 24.0401C76.4298 25.0415 76.5843 25.9769 76.5052 26.8463C76.4262 27.7158 76.1481 28.4704 75.6708 29.1103C75.1936 29.7501 74.5501 30.2269 73.7404 30.5406C72.9307 30.8543 72.1339 30.9355 71.3502 30.7841C70.5665 30.6328 69.8525 30.2624 69.2084 29.6732C68.5642 29.0839 68.0482 28.2885 67.6602 27.2872C67.2723 26.2858 67.1179 25.3504 67.1969 24.481C67.276 23.6115 67.5541 22.8569 68.0313 22.217C68.5085 21.5772 69.152 21.1004 69.9617 20.7867C70.7715 20.473 71.5682 20.3919 72.3519 20.5432C73.1357 20.6945 73.8496 21.0649 74.4938 21.6542C75.1379 22.2435 75.654 23.0388 76.0419 24.0401ZM74.9293 24.4712C74.6108 23.6491 74.2045 23.0085 73.7103 22.5495C73.2192 22.0893 72.6841 21.8043 72.1049 21.6946C71.5287 21.5837 70.9532 21.6395 70.3784 21.8622C69.8036 22.0849 69.3391 22.4319 68.9849 22.9033C68.6339 23.3734 68.4304 23.9445 68.3744 24.6166C68.3216 25.2876 68.4544 26.0341 68.7729 26.8562C69.0913 27.6783 69.4961 28.3194 69.9872 28.7796C70.4814 29.2386 71.0165 29.5236 71.5926 29.6345C72.1719 29.7443 72.7489 29.6878 73.3238 29.4651C73.8986 29.2424 74.3615 28.896 74.7126 28.4259C75.0667 27.9546 75.2702 27.3834 75.3231 26.7125C75.379 26.0404 75.2478 25.2932 74.9293 24.4712Z" fill="black"/>
<path d="M79.1665 28.5712L76.683 18.6969L80.0195 17.8578C80.7909 17.6638 81.4572 17.6363 82.0185 17.7754C82.579 17.9112 83.0356 18.1775 83.3882 18.5741C83.7409 18.9707 83.9904 19.4599 84.1367 20.0417C84.283 20.6234 84.2939 21.1692 84.1692 21.6791C84.0445 22.1889 83.7686 22.6342 83.3415 23.0151C82.9136 23.3927 82.3171 23.6777 81.5521 23.8701L78.8521 24.5492L78.5805 23.4692L81.2419 22.7998C81.7691 22.6672 82.1739 22.4834 82.4566 22.2482C82.7424 22.0123 82.9221 21.7347 82.9956 21.4155C83.0715 21.0922 83.0597 20.7329 82.9603 20.3375C82.8608 19.9422 82.7 19.6152 82.4778 19.3567C82.2555 19.0982 81.9619 18.9294 81.5968 18.8503C81.231 18.768 80.7812 18.794 80.2477 18.9282L78.1455 19.4569L80.3622 28.2705L79.1665 28.5712ZM82.6987 22.9665L86.2444 26.7911L84.8558 27.1403L81.3487 23.3061L82.6987 22.9665Z" fill="black"/>
<path d="M88.0176 26.6161L86.7664 16.5115L92.8647 15.7564L92.9991 16.8418L88.1244 17.4454L88.5472 20.8597L93.1061 20.2952L93.2405 21.3807L88.6816 21.9452L89.1068 25.3792L94.0605 24.7658L94.1949 25.8512L88.0176 26.6161Z" fill="black"/>
</svg>
