<svg width="135" height="100" viewBox="0 0 135 100" fill="none" xmlns="http://www.w3.org/2000/svg">
<path d="M70.9 47.5C71 47.5 71.1 47.6 71.2 47.6C71.2 47.6 71 47.5 70.9 47.5ZM68.8 47C69.2 47.1 69.7 47.1 70.1 47.2C69.6 47.1 69.2 47 68.8 47ZM62.8 47.6C62.9 47.6 62.9 47.6 62.8 47.6ZM128.4 56.3V55.2C123.5 55.2 125.7 55.1 120.8 55.2C113.2 55.2 105.6 55.1 97.9 54.9C94.1 54.8 90.3 54.7 86.5 54.5C84.6 54.4 82.7 54.5 80.8 54.2C80.2 54.1 79.8 53.9 79.4 53.6C79.3 53.5 78.5 53.2 78.2 52.9C78.1 52.8 78 52.8 78 52.7C77.8 52.5 77.7 52.3 77.6 52.2C76.9 51.3 76.5 50.3 75.8 49.4C75.3 48.6 74.7 47.9 73.8 47.4C73.4 47.2 73 47 72.7 46.8C72.7 46.7 72.8 46.6 72.8 46.5C72.9 46 72.7 45.6 72.5 45.2C72.3 44.9 72.1 44.5 71.9 44.2C71.1 43.2 69.8 42.2 68.3 42.2L67.8 21H67L66.6 42.2C65.2 42.2 63.9 43.2 63.1 44.2C62.9 44.5 62.7 44.8 62.5 45.2C62.3 45.6 62.2 46.1 62.2 46.5C62.2 46.6 62.2 46.7 62.3 46.8C61.9 47 61.5 47.2 61.2 47.4C60.4 47.9 59.8 48.6 59.2 49.4C58.6 50.3 58.1 51.3 57.4 52.2C57.2 52.4 57.1 52.6 57 52.7C57 52.7 56.9 52.8 56.8 52.9C56.5 53.1 55.7 53.4 55.6 53.6C55.1 53.9 54.8 54.2 54.2 54.2C52.3 54.4 50.4 54.4 48.5 54.5C44.7 54.7 40.9 54.8 37.1 54.9C29.5 55.1 21.9 55.2 14.2 55.2C9.29998 55.2 11.5 55.2 6.59998 55.2V56.3L45.2 56.8L31.1 59.8L31.4 60.7L53.1 57.1C54.8 57.7 56.2 58.9 57.3 60.3C57.6 60.8 57.9 61.3 58.3 61.7C58.6 62.1 58.8 62.5 59 63C59.6 63.8 60.3 64.6 61.2 65.1C62.5 65.9 63.9 66.4 65.3 66.7C66 66.8 66.7 66.9 67.4 66.9C68.1 66.9 68.8 66.8 69.5 66.7C70.9 66.4 72.4 65.9 73.6 65.1C74.5 64.6 75.2 63.8 75.8 63C76.1 62.6 76.2 62.1 76.5 61.7C76.8 61.2 77.1 60.7 77.5 60.3C78.6 58.9 80 57.8 81.7 57.1L103.4 60.7L103.7 59.8L89.6 56.8L128.4 56.3ZM63.7 47.6C63.8 47.6 63.9 47.5 63.9 47.5C63.9 47.6 63.8 47.6 63.7 47.6ZM64 47.5C64.1 47.5 64.1 47.5 64 47.5ZM67.4 46.9C67.6 46.9 67.8 46.9 68.1 47C67.9 46.9 67.6 46.9 67.4 46.9ZM71.6 45.9C71.6 46 71.6 46 71.5 46.1C71.4 46.3 71.2 46.5 70.9 46.5C70.6 46.6 70.3 46.5 70 46.4C69.2 46.2 68.3 46.1 67.4 46.1C66.5 46.1 65.6 46.2 64.8 46.4C64.5 46.5 64.2 46.6 63.9 46.5C63.6 46.4 63.4 46.3 63.3 46.1C63.3 46 63.3 46 63.2 45.9C63.1 45.6 63.2 45.4 63.4 45.1C63.5 44.9 63.7 44.7 63.9 44.6C64.5 44 65.6 43.5 66.7 43.5H68C68.6 43.5 69.1 43.6 69.6 43.8C70.1 44 70.5 44.3 70.8 44.6C71 44.8 71.1 45 71.3 45.1C71.5 45.4 71.7 45.6 71.6 45.9ZM72.5 47.3C72.6 47.2 72.7 47.1 72.7 47C72.6 47.1 72.6 47.2 72.5 47.3Z" fill="white"/>
</svg>
