<svg width="256" height="45" viewBox="0 0 256 45" fill="none" xmlns="http://www.w3.org/2000/svg">
<g id="enata_logo_white" clip-path="url(#clip0_10_35)">
<g id="Group 101">
<path id="Path 81" d="M74.825 20.069L73.311 24.66H91.469V20.069H74.825ZM63.929 0.791016V44.551H93V39.959H69.589V24.736V20.029V5.38102H92.54V0.791016H63.929Z" fill="white"/>
<path id="Path 82" d="M132.563 0.791016V36.043L105.788 0.791016H100.127V44.551H105.483V8.99202L132.258 44.551H137.919V0.791016H132.563Z" fill="white"/>
<path id="Path 83" d="M162.491 0.791016L143.917 44.551H149.792L165.43 6.36102L173.599 26.19H162.583L161.022 30.78H175.496L181.162 44.551H187.436L168.762 0.791016H162.491Z" fill="white"/>
<path id="Path 84" d="M183.1 0.791016V5.38302H196.871V44.551H202.532V5.38302H216.302V0.791016H183.1Z" fill="white"/>
<path id="Path 85" d="M230.515 0.791016L211.941 44.551H217.816L233.454 6.36102L241.625 26.19H230.609L229.048 30.78H243.522L249.183 44.551H255.456L236.789 0.791016H230.515Z" fill="white"/>
<g id="Group 83">
<g id="Group 82">
<path id="Path 86" d="M40.709 39.538H35.071C35.6584 37.046 36.4714 34.6126 37.5 32.268C38.789 29.829 39.931 28.887 41.986 24.914C45.786 17.562 49.186 5.966 43.66 0C41.58 5.511 39.579 9.776 32.778 15.813L34.054 18.113L39.494 13.522C41.105 12.162 42.125 13.022 41.024 17.176C39.923 21.33 34.291 29.258 30.542 30.48C26.148 31.914 25.204 27.457 25.173 26.312C25.144 25.263 25.154 24.753 25.167 24.444C25.298 21.117 25.632 11.988 25.632 11.988L29.29 6.719L23.308 0.823L23.279 0.793L23.251 0.823L17.268 6.723L20.923 11.994C20.923 11.994 21.258 21.123 21.39 24.45C21.402 24.762 21.415 25.269 21.39 26.32C21.358 27.462 20.414 31.92 16.021 30.486C12.272 29.263 6.64099 21.325 5.53899 17.179C4.43699 13.033 5.45799 12.164 7.06899 13.525L12.512 18.115L13.788 15.815C6.98299 9.776 4.97999 5.511 2.89999 0C-2.62301 5.966 0.773992 17.562 4.57699 24.914C6.63199 28.887 7.77699 29.828 9.06199 32.268C10.0891 34.6121 10.9008 37.0448 11.487 39.536H5.84799L4.94099 34.936L1.37099 32.817L2.87799 44.551H43.678L45.19 32.817L41.617 34.943L40.709 39.538ZM23.279 41.445C22.4073 41.4446 21.5552 41.1857 20.8306 40.7011C20.106 40.2165 19.5413 39.528 19.208 38.7225C18.8746 37.917 18.7876 37.0308 18.9579 36.1758C19.1282 35.3209 19.5482 34.5356 20.1648 33.9194C20.7813 33.3031 21.5668 32.8835 22.4218 32.7136C23.2768 32.5436 24.163 32.631 24.9683 32.9647C25.7737 33.2984 26.462 33.8634 26.9462 34.5883C27.4305 35.3131 27.689 36.1653 27.689 37.037C27.6889 37.616 27.5747 38.1893 27.353 38.7242C27.1313 39.259 26.8064 39.745 26.3969 40.1543C25.9874 40.5637 25.5013 40.8883 24.9663 41.1098C24.4313 41.3312 23.858 41.4451 23.279 41.445Z" fill="white"/>
</g>
</g>
</g>
</g>
<defs>
<clipPath id="clip0_10_35">
<rect width="255.455" height="44.551" fill="white"/>
</clipPath>
</defs>
</svg>
