<svg xmlns="http://www.w3.org/2000/svg" xmlns:xlink="http://www.w3.org/1999/xlink" width="255.455" height="44.551" viewBox="0 0 255.455 44.551"><defs><clipPath id="clip-path"><rect id="Rectangle_2048" data-name="Rectangle 2048" width="255.455" height="44.551" fill="#26292f"></rect></clipPath></defs><g id="Group_101" data-name="Group 101" transform="translate(0 0)"><path id="Path_81" data-name="Path 81" d="M57.207,19.851l-1.514,4.591H73.851V19.851ZM46.311.573v43.76H75.382V39.741H51.971V24.518h0V19.811h0V5.163H74.922V.573Z" transform="translate(17.618 0.218)" fill="#26292f"></path><path id="Path_82" data-name="Path 82" d="M104.969.573V35.825L78.194.573H72.533v43.76h5.356V8.774l26.775,35.559h5.661V.573Z" transform="translate(27.594 0.218)" fill="#26292f"></path><path id="Path_83" data-name="Path 83" d="M122.829.573l-18.574,43.76h5.875l15.638-38.19,8.169,19.829H122.921l-1.561,4.59h14.474L141.5,44.333h6.274L129.1.573Z" transform="translate(39.662 0.218)" fill="#26292f"></path><path id="Path_84" data-name="Path 84" d="M132.639.573V5.165h13.771V44.333h5.661V5.165h13.77V.573Z" transform="translate(50.461 0.218)" fill="#26292f"></path><path id="Path_85" data-name="Path 85" d="M172.106.573l-18.574,43.76h5.875l15.638-38.19,8.171,19.829H172.2l-1.561,4.59h14.474l5.661,13.771h6.273L178.38.573Z" transform="translate(58.409 0.218)" fill="#26292f"></path><g id="Group_83" data-name="Group 83" transform="translate(0 0)"><g id="Group_82" data-name="Group 82"><path id="Path_86" data-name="Path 86" d="M40.709,39.538l-5.638,0A42.187,42.187,0,0,1,37.5,32.268c1.289-2.439,2.431-3.381,4.486-7.354,3.8-7.352,7.2-18.948,1.674-24.914-2.08,5.511-4.081,9.776-10.882,15.813l1.276,2.3,5.44-4.591c1.611-1.36,2.631-.5,1.53,3.654S34.291,29.258,30.542,30.48c-4.394,1.434-5.338-3.023-5.369-4.168-.029-1.049-.019-1.559-.006-1.868.131-3.327.465-12.456.465-12.456L29.29,6.719,23.308.823l-.029-.03-.028.03-5.983,5.9,3.655,5.271s.335,9.129.467,12.456c.012.312.025.819,0,1.87-.032,1.142-.976,5.6-5.369,4.166-3.749-1.223-9.38-9.161-10.482-13.307s-.081-5.015,1.53-3.654l5.443,4.59,1.276-2.3C6.983,9.776,4.98,5.511,2.9,0-2.623,5.966.774,17.562,4.577,24.914c2.055,3.973,3.2,4.914,4.485,7.354a42.188,42.188,0,0,1,2.425,7.268l-5.639,0-.907-4.6L1.371,32.817,2.878,44.551h40.8L45.19,32.817l-3.573,2.126ZM23.279,41.445h0a4.408,4.408,0,1,1,4.41-4.408,4.409,4.409,0,0,1-4.41,4.408" transform="translate(0 0)" fill="#26292f"></path></g></g></g></svg>