<svg width="100" height="100" viewBox="0 0 100 100" fill="none" xmlns="http://www.w3.org/2000/svg">
<path d="M91.1 54.9C91.1 54.5 90.6 54.4 90.4 54.7C89.9 55.6 89.6 56.6 89.4 57.7C89.3 58.2 88.9 58.6 88.5 58.9C85.1 60.9 80.9 63.4 77.5 65.5C76.2 66.2 74.5 65.8 73.7 64.5C72.8 62.9 70.5 59.1 69.5 57.4C68.1 55.1 66.8 52.7 65.3 50.4C65.9 50.3 66.2 50.2 66.2 50.2C67.6 49.9 67.3 46.6 67.3 46.6C69 45.8 67.2 39.2 67.2 39.2C67.2 39.2 66 40.1 67.2 39.1C68.4 38 67.8 37.4 67.8 37.4C67.6 37 66.4 36.5 65.7 36.5C65.7 36.5 65.7 36.5 65.7 36.4C65.3 30.7 61.3 29.5 55.4 29.5C54.4 29.5 53.5 30.3 53.5 31.3C53.5 31.8 53.5 32.3 53.4 32.8C53.4 33.8 53.3 34.9 53.3 35.6V35.7C51.6 35.7 50.4 35.7 50.1 35.7H49.8C49.5 35.7 48.3 35.7 46.6 35.7V35.6C46.6 34.9 46.6 33.8 46.5 32.8C46.5 32.3 46.5 31.8 46.4 31.3C46.4 30.3 45.5 29.5 44.5 29.5C38.6 29.5 34.6 30.6 34.2 36.4C34.2 36.4 34.2 36.4 34.2 36.5C33.5 36.6 32.3 37 32.1 37.4C32.1 37.4 31.5 38.1 32.7 39.1C33.9 40.2 32.7 39.2 32.7 39.2C32.7 39.2 31 45.8 32.6 46.6C32.6 46.6 32.3 49.8 33.7 50.2C33.7 50.2 34 50.3 34.6 50.4C33.2 52.7 31.8 55 30.4 57.4C29.5 59 27.2 62.9 26.2 64.5C25.5 65.8 23.7 66.3 22.5 65.5C19.1 63.5 15 61 11.5 58.9C11.1 58.6 10.7 58.2 10.6 57.7C10.4 56.7 10.1 55.7 9.60003 54.7C9.50003 54.4 9.00002 54.4 8.90002 54.9C8.90002 55.3 8.90002 55.8 8.90002 56.3C8.90002 56.8 9.00003 57.2 9.10003 57.6L9.20002 57.9V58C9.30002 58.4 9.40003 58.7 9.60003 59.1C9.90003 59.6 10.3 60 10.7 60.3C13.4 61.9 17.1 64.3 19.8 65.9C20.3 66.2 21.2 66.8 21.7 67C21.8 67 21.9 67.1 22 67.1C22.1 67.1 22.2 67.2 22.3 67.2C24 67.9 26 67.4 27.2 66.1L27.5 65.8C27.6 65.7 27.7 65.6 27.8 65.4C27.8 65.3 27.9 65.2 27.9 65.2C30.6 60.7 33.4 55.8 36 51.2V66.6C35.3 66.9 34.9 67.5 34.9 68.3C34.9 69.3 35.8 70.2 36.8 70.2C37.5 70.2 38.2 69.8 38.5 69.1L47.2 70.4C47.4 70.4 47.6 70.3 47.6 70.1C47.6 69.9 47.5 69.7 47.3 69.6L38.6 67.8C38.4 67.3 38.1 66.8 37.5 66.6V51C41 51.8 46.2 53.2 49.9 54.8C50 54.8 50 54.8 50.1 54.7C50.2 54.7 50.2 54.7 50.3 54.8C54 53.2 59.3 51.8 62.7 51V66.6C62.2 66.8 61.8 67.3 61.6 67.8L52.9 69.6C52.7 69.6 52.6 69.8 52.6 70.1C52.6 70.3 52.8 70.4 53 70.4L61.7 69.1C62 69.7 62.6 70.2 63.4 70.2C64.4 70.2 65.3 69.3 65.3 68.3C65.3 67.5 64.8 66.9 64.2 66.6V51.2C66.9 55.8 69.7 60.7 72.3 65.2C72.3 65.3 72.4 65.4 72.4 65.4C72.5 65.5 72.6 65.7 72.7 65.8L73 66.1C74.2 67.4 76.2 67.9 77.9 67.2C78 67.2 78.1 67.1 78.2 67.1C78.2 67.1 78.4 67 78.5 67C78.9 66.7 79.9 66.1 80.4 65.9C83 64.3 86.8 61.9 89.5 60.3C90 60 90.4 59.6 90.6 59.1C90.8 58.8 90.9 58.4 91 58V57.9L91.1 57.6C91.2 57.2 91.3 56.7 91.3 56.3C91.1 55.8 91.2 55.3 91.1 54.9ZM35.3 35.7C35.9 31.3 39.2 30.4 44.5 30.4C45 30.4 45.4 30.8 45.4 31.3C45.4 31.8 45.4 32.3 45.5 32.8C45.5 33.6 45.6 34.4 45.6 35C39.3 35.1 36.5 35.5 35.3 35.7ZM49.2 41.4C49.2 41.7 49 41.9 48.7 41.9H48.5C46.7 41.9 45.2 40.4 45.2 38.6V37.3H48.6C49 37.3 49.3 37.6 49.3 38L49.2 41.4ZM54.8 38.7C54.8 40.5 53.3 42 51.5 42H51.3C51 42 50.8 41.8 50.8 41.5V38C50.8 37.6 51.1 37.3 51.5 37.3H54.9L54.8 38.7ZM54.4 35.1C54.4 34.4 54.4 33.6 54.5 32.9C54.5 32.4 54.5 31.9 54.6 31.4C54.6 30.9 55 30.5 55.5 30.5C60.9 30.5 64.1 31.4 64.7 35.8C63.5 35.5 60.6 35.1 54.4 35.1Z" fill="white"/>
</svg>
