<svg width="100" height="100" viewBox="0 0 100 100" fill="none" xmlns="http://www.w3.org/2000/svg">
<path d="M72.1 63.2999H69.5V58.2999C69.5 55.5999 68.4 53.0999 66.6 51.2999C66.1 50.7999 65.7 50.3999 65.1 50.0999L49.2 28.4C48.6 27.6 47.7 27.2 46.6 27.2C45.8 27.2 45 27.3999 44.2 27.7999C42.6 28.5999 41.6 30.1 41.6 31.4L27.2 42.9C26.1 43.8 25.5 45.1 25.5 46.5C25.5 47.5 25.8 48.4999 26.5 49.2999C26.7 49.4999 26.9 49.8 27.1 50V59.2999H28.5V61.4H29.7V66.1999H30.8V61.4H32V59.2999H33.4V49.5L44.5 40.7L49.8 56.2C49.7 56.9 49.6 57.4999 49.6 58.2999V63.2999H47.2L44.6 65.8V73.1999H74.4V65.5999L72.1 63.2999ZM31.7 48.7C31.3 49 30.8 49.0999 30.3 49.0999C29.8 49.0999 29.3 49 28.9 48.7C28.1 48.2 27.5 47.2999 27.5 46.2999C27.5 44.7999 28.7 43.5 30.3 43.5C31.8 43.5 33.1 44.6999 33.1 46.2999C33.1 47.2999 32.5 48.2 31.7 48.7ZM46.9 35.7C45.4 35.7 44.1 34.5 44.1 32.9C44.1 31.4 45.3 30.1 46.9 30.1C48.4 30.1 49.7 31.3 49.7 32.9C49.6 34.5 48.4 35.7 46.9 35.7ZM59.6 61C58.3 61 57.1 60.3999 56.3 59.5999C55.6 58.7999 55.1 57.7999 55.1 56.5999C55.1 54.1999 57.1 52.2 59.5 52.2C61.6 52.2 63.4 53.7 63.8 55.7C64 56 64 56.2999 64 56.5999C64 59.0999 62 61 59.6 61Z" fill="white"/>
</svg>
