<svg width="100" height="100" viewBox="0 0 100 100" fill="none" xmlns="http://www.w3.org/2000/svg">
<path d="M90.5 59.9C90.4 59.9 90.4 60 90.3 60C90.3 60 90.2 60 90.2 60.1C90.3 60 90.4 60 90.5 59.9C90.6 59.9 90.6 59.9 90.6 59.9C90.5 59.9 90.5 59.9 90.5 59.9Z" fill="white"/>
<path d="M44.7999 65.1C44.7999 65.1 44.9999 65.1 45.2999 65.1L45.3999 65L44.7999 65.1Z" fill="white"/>
<path d="M44.7999 65.1C44.7999 65.1 44.9999 65.1 45.2999 65.1L45.3999 65L44.7999 65.1Z" fill="white"/>
<path d="M90.7999 59.3C90.7999 59.2 90.5999 59 90.4999 59C90.1999 58.7 89.9999 58.4 89.6999 58.1C88.9999 57.3 88.3999 56.5 87.6999 55.7C86.3999 54.1 84.9999 52.5 83.6999 50.9C83.1999 50.4 82.7999 49.8 82.2999 49.3C82.1999 49.2 82.0999 49.1 81.9999 49C81.0999 48.2 80.0999 47.5 78.9999 46.9C77.8999 46.3 76.8999 45.5 75.6999 45.1C75.3999 45 75.0999 45 74.7999 45.1L73.1999 45.6C72.4999 45.8 72.3999 45.6 71.6999 45.4C70.6999 45.1 69.6999 44.8 68.6999 44.4C68.2999 44.2 67.8999 44.1 67.5999 43.9C66.7999 43.5 66.0999 43 65.3999 42.6C63.5999 41.4 61.6999 40.3 59.7999 39.3C56.9999 37.9 54.0999 36.7 51.0999 36.1C49.8999 35.9 48.5999 35.7 47.3999 35.7L46.9999 35.3L46.1999 34C45.7999 33.4 45.0999 33 44.2999 33.2L42.5999 33.5L43.0999 35.4L43.1999 35.7C39.8999 36.1 36.4999 36.7 33.6999 38.2C33.6999 38.2 33.4999 38.3 33.3999 38.4C32.6999 38.8 31.0999 39.6 30.9999 39.7L24.2999 33.6C24.0999 33.5 23.2999 33.1 21.8999 33.9L26.6999 41L25.6999 41.3L25.2999 41L24.6999 40C24.5999 39.8 24.2999 39.7 23.9999 39.7L22.9999 39.8C22.7999 39.8 22.5999 39.9 22.4999 40L19.5999 42.6L9.79994 45.7C9.19994 45.9 8.99994 46.6 9.29994 47C14.0999 53.4 20.6999 57.4 28.6999 57.3L37.0999 56.9V57C36.6999 58.9 36.3999 60.7 36.0999 62.6C35.9999 63.1 35.8999 63.7 35.9999 64.2C36.1999 65 36.8999 65.6 37.5999 65.9C42.3999 68 57.7999 67.2 60.3999 67C64.2999 66.7 67.2999 65.2 70.4999 63.1C71.0999 62.7 71.5999 62.4 72.2999 62.5C72.8999 62.5 73.4999 62.5 73.9999 62.5C75.2999 62.5 77.3999 62.2 78.6999 62C79.5999 61.9 80.4999 61.9 81.2999 61.8C83.1999 61.6 84.7999 61.4 86.1999 61.1C87.5999 60.8 88.6999 60.5 89.5999 60.2C89.6999 60.2 89.7999 60.1 89.8999 60.1C89.8999 60.1 89.9999 60.1 89.9999 60C90.0999 60 90.0999 59.9 90.1999 59.9C90.2999 59.9 90.2999 59.9 90.2999 59.8C90.3999 59.8 90.4999 59.7 90.4999 59.7L90.7999 59.3ZM41.1999 50.7C39.2999 46.8 22.2999 48.9 22.2999 48.9C22.2999 48.9 26.9999 53 29.8999 53H37.8999C37.7999 53.4 37.7999 53.8 37.6999 54.1C37.5999 54.7 37.5999 54.5 37.4999 55.1C37.4999 55.2 35.4999 55.2 35.2999 55.2C33.1999 55.3 30.9999 55.3 28.8999 55.3C26.6999 55.3 24.4999 55.3 22.3999 54.6C20.3999 53.9 18.5999 52.7 16.9999 51.4C15.3999 50.1 13.1999 48.6 11.8999 47C12.0999 47.3 13.9999 47.5 14.2999 47.5C15.1999 47.6 16.0999 47.7 16.9999 47.6C18.8999 47.6 20.6999 47.4 22.5999 47.1C25.1999 46.7 27.7999 46.2 30.3999 45.9C32.9999 45.6 35.5999 45.8 38.1999 46.4C39.1999 46.6 40.2999 46.9 41.1999 47.3C41.4999 47.4 41.7999 47.6 42.0999 47.9C43.1999 49.1 41.8999 50 41.1999 50.7ZM62.0999 65C60.1999 65.5 47.8999 65.6 45.2999 65.5L45.3999 65L45.2999 65.1C44.9999 65.1 44.7999 65.1 44.7999 65.1L45.3999 65L53.3999 56.6C53.4999 56.6 53.6999 56.7 53.7999 56.7C57.7999 57.9 64.2999 59.4 70.2999 60.6L70.5999 60.7C70.6999 60.7 63.8999 64.5 62.0999 65ZM77.6999 53.1C76.3999 53.2 75.0999 53.4 73.7999 53.4C72.2999 53.4 70.8999 53.2 69.3999 53C68.2999 52.8 67.1999 52.6 66.0999 52.3C65.6999 52.2 65.2999 52.1 64.8999 52C64.7999 52 64.6999 51.9 64.5999 51.9C64.1999 51.7 63.8999 51.5 63.5999 51.3C63.5999 51.2 62.4999 50.7 62.3999 50.6C61.8999 50.3 61.4999 50.1 60.9999 49.8C60.1999 49.3 59.2999 48.8 58.4999 48.4C57.0999 47.6 55.5999 46.9 53.9999 46.4C53.6999 46.3 53.5999 46.4 52.5999 46.6C52.4999 46.6 52.2999 46.5 52.1999 46.5C48.4999 45.1 37.3999 41.1 34.8999 41.3C34.1999 41.4 33.3999 41.4 32.4999 41.4L31.9999 40.9C36.1999 38.5 40.4999 37 45.3999 36.9C47.4999 36.8 49.5999 37 51.5999 37.4C55.8999 38.4 59.7999 40.6 63.4999 42.9C68.2999 45.9 73.2999 48.9 77.7999 52.6C78.0999 52.7 77.9999 53.1 77.6999 53.1Z" fill="white"/>
<path d="M90.1 60C90 60 89.9 60.1 89.7 60.1C89.9 60.1 90 60.1 90.1 60Z" fill="white"/>
</svg>
