<svg width="100" height="100" viewBox="0 0 100 100" fill="none" xmlns="http://www.w3.org/2000/svg">
<path d="M92.1 36.8C82.1 31.7 65.1 28.6 59.1 29.4C58.6 29.5 58.1 29.7 57.7 30L44.9 39.9C44.9 39.9 42.9 36.8 39.2 38.7C39.2 38.7 35.2 38.2 35.5 39C35.8 40 36.7 40.1 38.4 40.6C38.4 40.6 39.2 42.7 39.8 43.6C40.2 44.2 30.2 43.8 27.4 43.6C21.9 43.2 14.8 61.2 12.8 70.6C12.7 71.1 13.3 71.5 13.7 71.2C21.7 62.6 29.6 55.5 29.6 55.5C29.6 55.5 31.6 52.3 45.6 52.7C47.7 53.9 49.7 54.4 50.8 54.5C52.7 55.3 52.2 60.1 52.2 60.1C52.2 60.1 58.1 61.6 62.4 56.8L56.1 51.8C56.1 51.8 53.8 49.8 55.6 48.1C58.8 45.1 68.8 37.4 71.6 37.1C74.3 36.8 87.5 37.6 91.9 37.7C92.3 37.6 92.4 37 92.1 36.8ZM72 34.9C70.3 34.8 68.7 35.3 67.3 36.3L55.2 44.7L53.4 43.3L66.3 34.4C67.8 33.3 69.7 32.9 71.6 33.2L88 36.1L72 34.9Z" fill="white"/>
</svg>
