<svg width="100" height="100" viewBox="0 0 100 100" fill="none" xmlns="http://www.w3.org/2000/svg">
<path d="M44.4001 45.7999L44.3 45.7C44.3 45.7 44.4001 45.6999 44.4001 45.7999Z" fill="white"/>
<path d="M73.7 42.5C69.4 29.4 55.4 22.2 42.3 26.5C29.2 30.8 22 44.8 26.3 58C30.5 71 44.6 78.2 57.7 74C70.8 69.7 78 55.6 73.7 42.5ZM67.8 44.4C68 45 68.2 45.6 68.3 46.2C63.1 49.5 62.2 50.3 61.1 50.7C60.6 50.9 59 50.7 57.3 50.5C57.3 49.7 57.2 48.8 56.9 47.9C56.6 47.1 56.2 46.3 55.7 45.6C57 44.4 58.1 43.4 58.6 43.2C59.7 42.8 60.9 43 67 42.6C67.3 43.3 67.6 43.8 67.8 44.4ZM66.1 40.8C62.8 40.9 59.2 41.1 58.8 41.2C58.1 41.3 57.5 41.3 56.8 41.9C56.4 42.3 54.7 44.2 54.7 44.2C54.6 44.3 54.5 44.3 54.4 44.3C54.3 44.3 54.3 44.2 54.4 44C54.4 44 55.7 41.8 56 41.3C56.4 40.5 56.2 39.9 56.1 39.2C56 38.8 55.2 35.3 54.3 32.1C59.2 33.2 63.5 36.3 66.1 40.8ZM54.7 47.4C55.4 47.2 56.1 47.5 56.3 48.2C56.5 48.9 56.2 49.6 55.5 49.8C54.8 50 54.1 49.7 53.9 49C53.6 48.3 54 47.6 54.7 47.4ZM53.9 55.5C53.3 55.9 52.5 55.8 52.1 55.2C51.7 54.6 51.8 53.8 52.4 53.4C53 53 53.8 53.1 54.2 53.7C54.6 54.3 54.5 55.1 53.9 55.5ZM48.1 31.6C48.7 31.5 49.3 31.5 50 31.5C50.6 31.5 51.3 31.5 51.9 31.6C53.4 37.5 54 38.6 54 39.8C54 40.3 53.4 41.8 52.6 43.3C51.8 43 51 42.8 50.1 42.8C49.2 42.8 48.3 43 47.6 43.3C46.8 41.7 46.2 40.3 46.2 39.8C46.1 38.7 46.6 37.6 48.1 31.6ZM51.3 44.9C51.3 45.6 50.7 46.2 50 46.2C49.3 46.2 48.7 45.6 48.7 44.9C48.7 44.2 49.3 43.6 50 43.6C50.7 43.6 51.3 44.2 51.3 44.9ZM45.8 53.8C46.2 53.2 47 53.1 47.6 53.5C48.2 53.9 48.3 54.7 47.9 55.3C47.5 55.9 46.7 56 46.1 55.6C45.6 55.1 45.4 54.3 45.8 53.8ZM44.5 49.8C43.8 49.6 43.5 48.9 43.7 48.2C43.9 47.5 44.6 47.2 45.3 47.4C46 47.6 46.3 48.3 46.1 49C45.9 49.6 45.2 50 44.5 49.8ZM46.1 32C45.2 35.2 44.2 38.7 44.2 39.1C44.1 39.8 43.8 40.4 44.3 41.2C44.5 41.7 45.8 43.9 45.8 43.9C45.8 44 45.8 44.1 45.8 44.2C45.7 44.2 45.6 44.2 45.5 44.1C45.5 44.1 43.8 42.2 43.4 41.8C42.7 41.1 42.2 41.2 41.4 41C41 40.9 37.4 40.7 34.1 40.5C36.7 36.2 41 33.1 46.1 32ZM32.3 44.4C32.5 43.8 32.7 43.2 33 42.6C39.1 43 40.3 42.8 41.4 43.2C41.9 43.4 43.1 44.4 44.3 45.6C43.8 46.3 43.4 47 43.1 47.9C42.8 48.8 42.7 49.6 42.7 50.5C41 50.7 39.4 50.9 38.9 50.7C37.8 50.3 36.9 49.5 31.8 46.2C31.9 45.7 32.1 45 32.3 44.4ZM31.4 48.3C34.2 50.2 37.2 52.1 37.5 52.3C38.2 52.7 38.6 53 39.5 52.9C40 52.8 42.5 52.3 42.5 52.3C42.6 52.3 42.7 52.3 42.7 52.4C42.7 52.5 42.7 52.6 42.6 52.6C42.6 52.6 40.2 53.6 39.8 53.9C39 54.3 38.8 54.9 38.5 55.5C38.3 55.9 36.9 59.2 35.8 62.3C32.6 58.5 30.9 53.5 31.4 48.3ZM39 65.3C38.5 64.9 38 64.5 37.5 64.1C39.8 58.4 40 57.2 40.7 56.3C41 55.9 42.4 55.1 43.9 54.2C44.4 54.9 45 55.5 45.7 56.1C46.4 56.6 47.2 57 48 57.2C47.7 58.9 47.3 60.4 47 60.9C46.3 61.8 45.2 62.4 40.5 66.3C40.1 66 39.5 65.7 39 65.3ZM42.5 67.3C45.2 65.3 47.9 63 48.2 62.7C48.7 62.2 49.2 61.9 49.4 61C49.5 60.5 49.8 57.9 49.8 57.9C49.8 57.8 49.9 57.7 50 57.7C50.1 57.7 50.1 57.8 50.2 57.9C50.2 57.9 50.4 60.4 50.5 61C50.6 61.9 51.1 62.2 51.7 62.8C52 63.1 54.7 65.4 57.3 67.5C52.5 69.4 47.2 69.4 42.5 67.3ZM61 65.3C60.5 65.7 60 66 59.4 66.3C54.7 62.4 53.6 61.8 52.9 60.9C52.6 60.5 52.2 58.9 51.9 57.2C52.7 57 53.5 56.6 54.2 56.1C54.9 55.6 55.5 54.9 56 54.2C57.5 55 58.9 55.8 59.2 56.3C59.9 57.2 60.1 58.4 62.3 64.1C62 64.5 61.5 64.9 61 65.3ZM63.9 62.7C62.8 59.6 61.5 56.2 61.3 55.8C61 55.1 60.8 54.6 60 54.1C59.5 53.8 57.2 52.8 57.2 52.8C57.1 52.7 57 52.6 57.1 52.6C57.1 52.5 57.2 52.5 57.4 52.5C57.4 52.5 59.9 53.1 60.4 53.2C61.3 53.4 61.8 53 62.4 52.7C62.8 52.5 65.8 50.6 68.6 48.8C69 53.7 67.4 58.8 63.9 62.7Z" fill="white"/>
<path d="M44.4001 45.7999L44.3 45.7C44.3 45.7 44.4001 45.6999 44.4001 45.7999Z" fill="white"/>
</svg>
