<svg width="100" height="100" viewBox="0 0 100 100" fill="none" xmlns="http://www.w3.org/2000/svg">
<path fill-rule="evenodd" clip-rule="evenodd" d="M96.1 36C95 38.4 92.6 40.1 89.8 40.1C73.1 40.1 91.3 40.1 74.6 40.1C73.4 40.1 72.4 40.3 71.5 41C70.7 41.7 69.9 42.9 69.2 44.2H87.9C86.8 46.6 84.4 48.3 81.6 48.3H67.3C66.7 49.7 66.1 51.1 65.5 52.4H79.5C78.4 54.8 76 56.5 73.2 56.5H63.2C61.3 59.6 58.8 62.4 55.7 64.3C52.5 62.3 50.1 59.5 48.2 56.5H38.2C35.4 56.5 33 54.8 31.9 52.4H45.9C45.2 51 44.6 49.7 44.1 48.3H29.9C27.1 48.3 24.7 46.6 23.6 44.2H42.3C41.6 42.9 40.8 41.7 40 41C39.1 40.3 38 40.1 36.9 40.1C20.2 40.1 38.4 40.1 21.7 40.1C18.9 40.1 16.5 38.4 15.4 36H36.9C48.3 36 46 50.6 55.8 59.3C65.5 50.5 63.2 36 74.6 36H96.1Z" fill="white"/>
<path fill-rule="evenodd" clip-rule="evenodd" d="M84.7 36C83.6 38.4 81.2 40.1 78.4 40.1C61.7 40.1 79.9 40.1 63.2 40.1C62 40.1 61 40.3 60 41C59.2 41.7 58.4 42.9 57.7 44.2H76.4C75.3 46.6 72.9 48.3 70.1 48.3H55.9C55.3 49.7 54.7 51.1 54.1 52.4H68.1C67 54.8 64.6 56.5 61.8 56.5H51.8C49.9 59.6 47.4 62.4 44.3 64.3C41.1 62.3 38.7 59.5 36.8 56.5H26.8C24 56.5 21.6 54.8 20.5 52.4H34.5C33.8 51 33.2 49.7 32.7 48.3H18.5C15.7 48.3 13.3 46.6 12.2 44.2H30.9C30.2 42.9 29.4 41.7 28.6 41C27.7 40.3 26.6 40.1 25.5 40.1C8.8 40.1 27 40.1 10.3 40.1C7.5 40.1 5.1 38.4 4 36H25.5C36.9 36 34.6 50.6 44.4 59.3C54.1 50.5 51.8 36 63.2 36H84.7Z" fill="white"/>
</svg>
