<?xml version="1.0" standalone="no"?>
<!DOCTYPE svg PUBLIC "-//W3C//DTD SVG 20010904//EN"
 "http://www.w3.org/TR/2001/REC-SVG-20010904/DTD/svg10.dtd">
<svg version="1.0" xmlns="http://www.w3.org/2000/svg"
 width="256.000000pt" height="256.000000pt" viewBox="0 0 256.000000 256.000000"
 preserveAspectRatio="xMidYMid meet">
<metadata>
Created by potrace 1.14, written by Peter Selinger 2001-2017
</metadata>
<g transform="translate(0.000000,256.000000) scale(0.100000,-0.100000)"
fill="#000000" stroke="none">
<path d="M1049 2545 c-506 -96 -899 -462 -1023 -955 -24 -94 -26 -120 -26
-310 0 -190 2 -216 26 -310 119 -473 472 -818 964 -943 73 -19 113 -22 285
-22 172 0 212 3 285 22 202 51 363 129 515 248 226 178 376 410 452 701 26
102 28 122 28 304 0 182 -2 202 -28 304 -126 482 -473 824 -962 948 -106 27
-403 34 -516 13z m-210 -875 c14 -19 58 -70 99 -112 73 -76 75 -78 62 -108
l-12 -30 -50 43 c-27 23 -67 55 -89 71 -36 27 -41 28 -55 14 -34 -33 13 -169
101 -293 50 -70 133 -151 170 -165 46 -18 100 -12 123 13 40 43 44 70 36 280
l-7 198 -50 71 -49 70 73 74 c40 41 78 74 84 74 6 0 43 -33 84 -74 l73 -73
-48 -73 -49 -73 -7 -191 c-9 -208 -1 -259 45 -291 36 -25 99 -19 143 14 142
105 281 349 248 435 -10 27 -30 18 -111 -49 -43 -36 -81 -65 -86 -65 -4 0 -12
11 -18 23 -10 21 -5 30 43 78 88 88 138 158 188 262 l48 98 21 -29 c25 -35 51
-131 51 -187 0 -157 -80 -382 -201 -566 -42 -65 -109 -224 -109 -261 0 -4 35
-8 79 -8 l79 0 12 63 c10 58 14 64 52 85 22 13 42 22 44 20 3 -4 -17 -176 -32
-265 l-5 -33 -544 0 c-300 0 -545 4 -545 8 0 8 -22 178 -35 264 l-5 38 45 -27
c39 -24 46 -34 55 -76 5 -26 10 -55 10 -62 0 -12 17 -15 80 -15 44 0 80 4 80
9 0 19 -43 148 -63 186 -11 22 -37 65 -57 95 -129 191 -208 457 -180 610 11
61 29 109 53 138 8 10 22 -10 56 -80 25 -51 57 -109 70 -128z"/>
<path d="M1201 1005 c-41 -35 -55 -81 -39 -131 15 -45 66 -84 112 -84 43 0 93
33 112 74 53 110 -91 219 -185 141z"/>
</g>
</svg>
